<?xml version="1.0" encoding="UTF-8" standalone="no"?>
<!-- Created with Inkscape (http://www.inkscape.org/) -->

<svg
   xmlns:dc="http://purl.org/dc/elements/1.1/"
   xmlns:cc="http://creativecommons.org/ns#"
   xmlns:rdf="http://www.w3.org/1999/02/22-rdf-syntax-ns#"
   xmlns:svg="http://www.w3.org/2000/svg"
   xmlns="http://www.w3.org/2000/svg"
   xmlns:sodipodi="http://sodipodi.sourceforge.net/DTD/sodipodi-0.dtd"
   xmlns:inkscape="http://www.inkscape.org/namespaces/inkscape"
   width="512"
   height="512"
   viewBox="0 0 135.46667 135.46667"
   version="1.1"
   id="svg8"
   sodipodi:docname="logo.svg"
   inkscape:version="0.92.5 (2060ec1f9f, 2020-04-08)"
   inkscape:export-filename=""
   inkscape:export-xdpi="48.000004"
   inkscape:export-ydpi="48.000004">
  <defs
     id="defs2" />
  <sodipodi:namedview
     id="base"
     pagecolor="#ffffff"
     bordercolor="#666666"
     borderopacity="1.0"
     inkscape:pageopacity="0"
     inkscape:pageshadow="2"
     inkscape:zoom="0.70710678"
     inkscape:cx="172.06489"
     inkscape:cy="177.57445"
     inkscape:document-units="mm"
     inkscape:current-layer="layer3"
     showgrid="false"
     units="px"
     width="256px"
     showguides="false"
     inkscape:window-width="1600"
     inkscape:window-height="836"
     inkscape:window-x="0"
     inkscape:window-y="0"
     inkscape:window-maximized="1"
     inkscape:pagecheckerboard="false"
     inkscape:measure-start="283.373,243.952"
     inkscape:measure-end="290.267,236.527">
    <sodipodi:guide
       position="0,0"
       orientation="0,512"
       id="guide3699"
       inkscape:locked="false" />
    <sodipodi:guide
       position="135.46667,0"
       orientation="-512,0"
       id="guide3701"
       inkscape:locked="false" />
    <sodipodi:guide
       position="135.46667,135.46667"
       orientation="0,-512"
       id="guide3703"
       inkscape:locked="false" />
    <sodipodi:guide
       position="0,135.46667"
       orientation="512,0"
       id="guide3705"
       inkscape:locked="false" />
  </sodipodi:namedview>
  <metadata
     id="metadata5">
    <rdf:RDF>
      <cc:Work
         rdf:about="">
        <dc:format>image/svg+xml</dc:format>
        <dc:type
           rdf:resource="http://purl.org/dc/dcmitype/StillImage" />
        <dc:title />
      </cc:Work>
    </rdf:RDF>
  </metadata>
  <g
     inkscape:label="Layer 1"
     inkscape:groupmode="layer"
     id="layer1"
     transform="translate(0,-161.53334)"
     style="display:inline" />
  <g
     inkscape:groupmode="layer"
     id="layer2"
     inkscape:label="Layer 2"
     style="display:inline">
    <rect
       style="display:inline;fill:#ffffff;fill-opacity:1;stroke:none;stroke-width:0.24757317;stroke-opacity:1"
       id="rect4599"
       width="34.762054"
       height="34.762054"
       x="87.508659"
       y="18.291576"
       transform="rotate(25.914715)"
       ry="5.4825778" />
    <path
       style="display:inline;fill:#ffffff;fill-opacity:1;stroke:none;stroke-width:0.26644793px;stroke-linecap:butt;stroke-linejoin:miter;stroke-opacity:1"
       d="m 79.804947,57.359056 3.241146,1.609954 V 35.255731 h -3.262698 z"
       id="path4525"
       inkscape:connector-curvature="0"
       sodipodi:nodetypes="ccccc" />
  </g>
  <g
     inkscape:groupmode="layer"
     id="layer3"
     inkscape:label="Layer 3"
     style="display:inline">
    <path
       style="fill:#000000;stroke-width:0.26458335"
       d=""
       id="path3790"
       inkscape:connector-curvature="0" />
    <path
       style="fill:#000000;stroke-width:0.17030135"
       d="m 68.319132,99.632781 c -0.852187,-0.09095 -0.936658,-0.137454 -0.936658,-0.515616 0,-0.64932 1.20782,-1.158514 4.116553,-1.735443 1.388861,-0.275479 3.114499,-0.662129 3.834754,-0.859224 l 1.309554,-0.358359 -0.543198,-0.394619 c -1.225063,-0.889961 -1.256097,-0.896466 -3.012567,-0.631779 -1.897397,0.285926 -8.29388,0.343592 -9.707177,0.08751 -1.018249,-0.184503 -1.320268,-0.09988 -2.043616,0.572602 -0.665776,0.618961 -2.034787,1.155849 -2.980275,1.168784 -1.756687,0.02404 -3.586821,-1.364652 -4.184293,-3.175017 -0.170792,-0.517498 -0.468338,-0.818166 -1.505463,-1.521253 -2.442431,-1.655764 -5.762139,-4.624586 -7.611084,-6.806602 -0.576619,-0.680494 -0.719318,-0.765683 -1.067121,-0.637023 l -0.401493,0.148526 0.651239,0.807321 c 1.566496,1.941937 2.788508,3.203393 4.394433,4.536254 0.945791,0.784984 2.118402,1.848934 2.605801,2.364357 1.293051,1.367376 1.439806,2.336627 0.353791,2.336627 -0.423102,0 -0.93124,-0.276647 -2.091536,-1.138686 -2.014617,-1.496752 -6.385196,-5.879539 -7.737959,-7.759563 -0.58972,-0.819577 -1.126126,-1.49014 -1.19201,-1.49014 -0.29438,0 -1.587266,-1.29145 -1.893167,-1.89107 -0.994099,-1.948592 -0.31405,-4.558847 1.483785,-5.695245 0.406554,-0.256981 0.73919,-0.558767 0.73919,-0.670635 0,-0.149825 -1.200314,-0.232586 -4.55783,-0.314254 C 17.333808,75.597883 4.3918088,73.934147 1.9281094,71.636125 0.93855474,70.713113 0.5345322,68.592662 1.1291324,67.44283 c 0.5262457,-1.017642 1.7871768,-1.71161 3.1141165,-1.713888 0.7340913,-0.0012 0.7102735,0.282958 -0.101375,1.209757 -1.211992,1.383929 -1.3690004,2.172012 -0.5798303,2.910373 2.0433143,1.911742 8.6117774,2.86802 26.6947364,3.886365 3.371966,0.189899 7.046971,0.417232 8.166675,0.505189 1.119705,0.08796 2.049407,0.143651 2.066007,0.123756 0.0166,-0.01988 -0.0056,-0.27046 -0.0493,-0.55681 l -0.07947,-0.52063 -4.881656,-0.210708 C 26.945891,72.707913 15.780967,71.944033 13.603325,71.579542 12.823407,71.449001 12.45677,70.937865 12.856399,70.538237 c 0.579034,-0.579036 6.21516,-0.566697 17.826135,0.03901 2.669472,0.139262 5.840917,0.303402 7.047651,0.364749 l 2.194063,0.111544 -0.09065,-0.49144 c -0.04986,-0.270285 -0.133792,-0.671522 -0.186522,-0.891634 -0.09799,-0.409007 -0.704297,-1.069265 -1.469012,-1.599717 -0.235415,-0.163302 -0.32626,-0.297416 -0.201879,-0.298028 0.127993,-6.43e-4 -0.03431,-0.305402 -0.373935,-0.702186 -1.020783,-1.192557 -1.364813,-2.7716 -0.941821,-4.32283 0.227746,-0.835206 1.743252,-2.380147 2.497255,-2.545754 0.487918,-0.107163 0.551761,-0.222577 1.154428,-2.086993 1.056996,-3.269934 3.148225,-6.972676 5.318581,-9.417112 l 0.831636,-0.936658 -0.07635,-1.156934 c -0.126927,-1.923403 0.842253,-3.675963 2.433645,-4.400738 0.792462,-0.360915 2.283766,-0.411608 3.391666,-0.115289 0.746525,0.199665 0.782113,0.189335 2.599542,-0.75454 2.153751,-1.118542 3.765875,-1.674411 6.037814,-2.08187 1.440631,-0.258369 1.664079,-0.345681 1.832903,-0.716209 0.105745,-0.232084 0.146401,-0.496175 0.09035,-0.58687 -0.154315,-0.249687 0.665184,-1.229884 1.605096,-1.919842 0.774946,-0.568863 0.924129,-0.613801 2.006485,-0.604405 1.869631,0.01623 2.735621,0.217826 3.319293,0.772696 0.495247,0.470806 1.059611,1.349278 0.961449,1.496557 -0.02532,0.03798 0.09735,0.227488 0.272595,0.421126 0.36858,0.407277 0.7856,0.548416 3.002257,1.016104 4.022179,0.848629 4.845747,1.087647 6.641752,1.927579 1.127516,0.527301 1.570979,0.654031 2.005774,0.5732 0.307016,-0.05707 0.513242,-0.176537 0.458276,-0.26547 -0.144823,-0.234332 0.827069,-0.198351 1.939205,0.0718 0.528676,0.128419 1.402593,0.332416 1.942027,0.453326 0.663499,0.148718 1.205422,0.412107 1.675138,0.814165 0.765997,0.655668 0.7302,0.394519 0.428398,3.125262 -0.135655,1.227455 1.76e-4,1.56405 1.317181,3.262744 2.218321,2.861359 4.024046,5.851919 5.054629,8.371277 0.55158,1.348387 0.683948,1.541253 1.119498,1.631159 0.932961,0.192576 2.27745,1.20623 2.697645,2.033833 0.308203,0.607022 0.330222,3.096307 0.03345,3.78488 -0.132217,0.306793 -0.628745,0.934715 -1.103393,1.395374 -0.474668,0.460667 -0.823622,0.901322 -0.77547,0.979237 0.04815,0.07791 0.01798,0.141656 -0.06691,0.141656 -0.246012,0 -0.853644,2.872675 -0.864048,4.084916 -0.005,0.607555 -0.08925,1.13123 -0.18675,1.163727 -0.09749,0.0325 -0.17725,0.368019 -0.17725,0.745602 v 0.68652 l 2.937696,-0.113914 c 9.593678,-0.372028 15.133398,-0.634583 18.520278,-0.877758 4.49681,-0.322872 6.84792,-0.276567 7.26761,0.143137 1.20687,1.206867 -4.10847,1.942568 -18.75193,2.59547 -3.17857,0.141721 -6.417903,0.257676 -7.198483,0.257676 h -1.419256 l 0.130208,0.468325 c 0.235833,0.848304 0.114366,2.307511 -0.251853,3.025351 -0.669811,1.312928 -2.033396,2.284563 -3.217746,2.292828 -0.486997,0.0032 -0.63747,0.155314 -1.648344,1.664179 -1.494625,2.23092 -3.533662,4.514706 -5.485295,6.143709 -1.555763,1.298567 -3.345897,2.413931 -3.874315,2.413931 -0.174158,0 -0.276881,0.215804 -0.320515,0.67335 l -0.06422,0.673349 0.514654,-0.324689 c 1.941876,-1.225089 3.848786,-2.77528 6.815808,-5.540775 4.321141,-4.02765 4.805155,-4.302692 4.64536,-2.639767 -0.09988,1.039464 -0.926336,2.28961 -2.682304,4.057417 -5.053192,5.087251 -12.267127,8.862511 -19.911747,10.420392 -1.712491,0.34898 -2.087655,0.36779 -3.764732,0.188809 z m -9.323999,-3.530158 c 0.900913,-0.148909 0.794089,-0.401418 -0.170302,-0.402544 -1.330926,-8.41e-4 -2.102924,-0.304181 -2.907547,-1.139754 -0.876826,-0.910554 -1.076579,-0.882497 -0.396917,0.05573 0.557524,0.769636 1.097012,1.162926 1.91985,1.399566 0.732512,0.210678 0.787851,0.213762 1.554916,0.08697 z m 19.346492,-0.552664 c 0.15731,-0.09969 -0.15836,-0.263863 -0.997243,-0.518666 -0.675076,-0.205055 -1.261655,-0.338574 -1.303508,-0.296718 -0.07843,0.07842 0.850639,0.681494 1.30423,0.846583 0.388412,0.141378 0.741645,0.13031 0.996521,-0.03118 z M 64.866982,94.576336 c -0.05659,-0.05656 -0.203475,-0.06261 -0.326412,-0.01345 -0.135854,0.05438 -0.0955,0.09472 0.102892,0.102884 0.179525,0.0076 0.280109,-0.03286 0.22352,-0.08944 z m 7.071053,-0.0099 c -0.117081,-0.04724 -0.308671,-0.04724 -0.425752,0 -0.117083,0.04724 -0.02129,0.08589 0.212876,0.08589 0.234165,0 0.32996,-0.03866 0.212876,-0.08589 z m 9.633753,-0.616398 c 0.302364,-0.364335 0.723047,-1.669775 0.601477,-1.866484 -0.121514,-0.196615 -0.555153,0.491325 -0.564592,0.895693 -0.0034,0.142169 -0.204846,0.551067 -0.447837,0.908662 -0.371664,0.546957 -0.389718,0.62229 -0.113719,0.474582 0.180444,-0.09658 0.416547,-0.282186 0.524671,-0.412453 z M 72.179904,93.72339 c 1.6635,-0.112759 1.843277,-0.258938 2.073529,-1.685963 0.367878,-2.279988 1.436796,-3.625468 3.192378,-4.018358 0.50882,-0.113863 0.991377,-0.290425 1.072353,-0.392354 0.213512,-0.268766 1.722062,-8.315625 1.722062,-9.185762 0,-1.218793 -0.04878,-1.208173 -2.469369,0.537513 -1.718344,1.239242 -4.043947,2.408583 -5.705096,2.868606 -0.880337,0.243785 -1.734526,0.305712 -4.172383,0.302462 -2.854579,-0.0039 -3.170846,-0.03636 -4.598136,-0.473237 C 61.30058,81.065763 59.657344,80.244584 58.215431,79.13776 56.306963,77.6728 56.355386,77.682925 55.331083,78.53473 l -0.4709,0.391595 1.422368,3.831784 c 1.90135,5.122126 1.931579,5.1771 3.048945,5.544636 2.024498,0.665929 3.075929,1.886521 3.428734,3.980382 0.109352,0.649001 0.261507,1.242866 0.338121,1.319704 0.339408,0.340415 4.937498,0.401451 9.081553,0.120567 z M 62.015373,92.417227 c 0.0059,-1.066674 -0.965044,-2.381577 -2.238089,-3.031039 -0.702622,-0.358453 -0.995027,-0.409232 -0.995027,-0.172797 0,0.08477 0.322723,0.257207 0.717166,0.383177 0.863627,0.275809 1.773131,1.371429 1.925375,2.319367 0.216168,1.345959 0.265349,1.485044 0.431978,1.221667 0.0858,-0.135612 0.157165,-0.459781 0.158597,-0.720375 z m 13.534438,-0.97822 c 0.12606,-0.8104 0.969002,-1.789595 1.982824,-2.303338 0.458853,-0.232521 0.834277,-0.498107 0.834277,-0.590195 0,-0.251369 -0.118213,-0.215169 -1.226737,0.375671 -1.267132,0.675371 -1.758409,1.309237 -1.988524,2.565668 -0.198112,1.081694 -0.04915,1.974101 0.177544,1.063615 0.06996,-0.280993 0.169239,-0.781134 0.220616,-1.111421 z M 56.330127,90.224423 c 0.488345,-0.544255 0.632563,-0.824562 0.424241,-0.824562 -0.224995,0 -1.378139,1.14974 -1.378139,1.374075 0,0.23843 0.511091,-0.05597 0.953898,-0.549513 z m 25.272511,0.05665 c 0,-0.18032 -0.622734,-0.745503 -1.274471,-1.156678 l -0.508114,-0.320568 0.389805,0.550419 c 0.547888,0.773639 1.39278,1.335876 1.39278,0.926827 z M 55.360461,89.516261 c 0.43225,-0.404321 0.919227,-0.809736 1.082172,-0.900922 0.26946,-0.150804 0.166455,-0.521596 -1.138639,-4.098889 -1.859258,-5.096265 -2.113661,-5.600147 -2.90216,-5.748066 -0.332784,-0.06243 -1.103738,-0.490957 -1.713231,-0.952286 l -1.108171,-0.838771 -1.418657,0.83794 -1.418656,0.837934 -0.11128,1.567721 c -0.0612,0.862246 -0.11128,1.967073 -0.11128,2.455171 v 0.887451 l 2.512414,2.451927 c 2.218094,2.164702 4.839253,4.235916 5.360629,4.235916 0.09952,0 0.534608,-0.330809 0.966859,-0.735126 z m 28.626397,-0.612403 c 1.538533,-1.158251 4.979649,-4.611647 6.086212,-6.107948 l 0.921353,-1.245859 -0.601286,-0.665549 C 89.676157,80.09089 89.0959,79.006454 89.0959,78.460116 c 0,-0.598254 -0.445527,-1.112769 -1.368611,-1.580529 -1.065658,-0.540003 -1.818904,-0.538646 -2.61963,0.0045 -0.940357,0.638149 -1.813069,1.045881 -2.508447,1.171955 -0.733473,0.132973 -0.601184,-0.277823 -1.486704,4.616693 -1.048799,5.797009 -1.060819,5.015183 0.09401,6.115239 0.545693,0.519806 1.145441,0.945985 1.332771,0.947052 0.187332,0.0016 0.838734,-0.373063 1.447564,-0.831405 z m -4.286482,-2.484252 c -0.004,-0.273813 -0.03175,-0.25711 -0.141356,0.08515 -0.18648,0.582287 -0.18648,1.030022 0,0.596055 0.08051,-0.187331 0.144111,-0.493874 0.141356,-0.681204 z M 43.60468,84.136968 c 0.330081,-0.209067 0.09023,-0.513614 -0.320017,-0.406336 -0.349,0.09126 -0.427591,0.245981 -0.226897,0.446673 0.148464,0.148467 0.26206,0.140086 0.546914,-0.04036 z m -3.855488,-1.676873 c -0.674819,-2.04771 -0.344077,-3.528499 0.984485,-4.407697 0.372813,-0.246715 0.677841,-0.519356 0.677841,-0.605876 0,-0.298754 -1.062498,0.460331 -1.662845,1.187994 -0.897829,1.088228 -0.987495,2.810445 -0.212477,4.081034 0.466295,0.76446 0.525648,0.693279 0.212996,-0.255455 z m 6.330068,-1.855327 c 0.0086,-0.39852 -0.08025,-0.820414 -0.19733,-0.93754 -0.170309,-0.170364 -0.211843,0.04075 -0.207699,1.055794 0.0042,1.025804 0.04197,1.205327 0.197332,0.937539 0.105684,-0.182162 0.199149,-0.657271 0.207697,-1.055793 z m 18.787722,0.688058 c -0.05659,-0.05658 -0.203475,-0.06262 -0.326412,-0.01346 -0.135854,0.05439 -0.0955,0.09472 0.102892,0.102889 0.179525,0.0074 0.280109,-0.03289 0.22352,-0.08944 z M 94.895379,80.91467 c 1.634887,-1.038743 2.422249,-2.496044 2.023361,-3.744998 -0.366983,-1.14904 -0.763551,-1.246973 -0.466261,-0.115145 0.347752,1.323981 -0.435147,2.962465 -1.727535,3.615438 -0.896911,0.453167 -1.213481,0.725749 -0.842859,0.725749 0.140891,0 0.596873,-0.216468 1.013294,-0.481044 z M 70.907274,80.553603 c 1.703471,-0.279019 4.415521,-1.579377 6.373403,-3.055872 0.950579,-0.716855 1.094753,-1.197173 0.674567,-2.247321 -0.146728,-0.366711 -0.208415,-0.666746 -0.137081,-0.666746 0.07133,0 0.12819,-0.511625 0.126347,-1.13694 -0.0032,-1.100064 -0.01992,-1.144 -0.514256,-1.354727 -0.280997,-0.119792 -0.597166,-0.221252 -0.702597,-0.22548 -0.105429,-0.0045 -1.078461,0.855557 -2.162287,1.910622 -1.295045,1.260683 -2.309398,2.090939 -2.958884,2.421876 -0.926019,0.471847 -1.137252,0.507821 -3.352617,0.571015 -1.959177,0.05587 -2.528243,0.01397 -3.320876,-0.2445 -0.845176,-0.275627 -1.816954,-0.790548 -2.063504,-1.093396 -0.04684,-0.05754 -0.430011,-0.339684 -0.851507,-0.627014 -0.421496,-0.287328 -0.912345,-0.684607 -1.090778,-0.882841 -0.178432,-0.198235 -0.41114,-0.360424 -0.517128,-0.360424 -0.105988,0 -0.478774,-0.383182 -0.828415,-0.851509 -0.688601,-0.922357 -1.079036,-1.048731 -1.568632,-0.50773 -0.256408,0.283325 -0.313453,0.650159 -0.324423,2.086188 -0.01601,2.09561 0.283277,2.816824 1.555683,3.748919 1.246516,0.913119 3.404832,1.953895 4.820415,2.324476 1.424446,0.372897 5.105838,0.475883 6.84257,0.191404 z m 20.572843,0.07427 c 0,-0.04763 -0.228135,-0.401553 -0.506958,-0.786462 -0.278832,-0.384907 -0.55574,-0.959855 -0.615365,-1.277668 -0.13299,-0.708919 -0.410394,-0.927377 -0.410394,-0.323193 0,0.5813 0.436568,1.606513 0.889322,2.088447 0.336708,0.358413 0.643395,0.500875 0.643395,0.298876 z m -38.588384,-2.70135 c -0.04927,-0.128404 -0.372569,-0.355087 -0.718436,-0.503734 -0.345867,-0.148645 -0.838344,-0.440797 -1.094389,-0.649213 -0.54518,-0.443771 -0.835766,-0.302726 -0.390339,0.189461 0.287743,0.317954 1.874871,1.196948 2.161233,1.196948 0.07233,0 0.0912,-0.105059 0.04193,-0.233462 z m -8.244488,-0.01855 c 0,-0.04493 -0.306543,-0.238077 -0.681206,-0.429218 -0.724965,-0.369846 -0.936472,-0.198106 -0.302708,0.2458 0.354285,0.24815 0.983914,0.365521 0.983914,0.183418 z M 55.7279,77.209983 c 0.219891,-0.264956 0.203396,-0.279522 -0.182704,-0.161391 -0.473658,0.144926 -1.020474,0.574433 -1.020474,0.801548 0,0.201736 0.903368,-0.27891 1.203178,-0.640157 z m -8.850959,-0.457139 c 1.980538,-1.105323 2.057102,-1.181307 2.218817,-2.201963 0.07877,-0.497136 0.08355,-0.924261 0.01063,-0.949159 -0.07292,-0.02491 -0.100766,-0.317812 -0.06188,-0.650937 0.0569,-0.487392 -0.02257,-0.703043 -0.406976,-1.104267 -0.262724,-0.274231 -0.409071,-0.498598 -0.325211,-0.498598 0.08386,0 -0.185985,-0.34486 -0.599652,-0.766353 -0.413667,-0.4215 -0.882925,-0.766359 -1.042799,-0.766359 -0.456747,0 -2.192926,-1.564091 -2.192926,-1.975568 0,-0.108155 -0.09825,-0.278184 -0.218329,-0.377842 -0.161726,-0.134221 -0.547132,0.01557 -1.486567,0.577716 -1.873683,1.121209 -1.812248,1.005865 -1.369365,2.570934 0.207551,0.733437 0.411831,1.601751 0.453956,1.929585 0.04213,0.327829 0.117175,0.921752 0.166775,1.319835 0.0591,0.474339 0.174622,0.723782 0.335198,0.723782 0.142919,0 0.245017,0.165034 0.245017,0.396062 0,0.21784 0.19241,0.576828 0.427576,0.797757 0.317884,0.298638 0.372496,0.436651 0.212877,0.537983 -0.149028,0.0946 -0.110517,0.137517 0.125903,0.140293 0.187332,0.0019 0.723781,0.229419 1.192109,0.50493 0.468329,0.275511 0.889824,0.50383 0.936658,0.507363 0.04683,0.0032 0.667019,-0.318302 1.378191,-0.715194 z m 36.684158,0.224341 c 0.595369,-0.28173 0.62756,-0.323967 0.255459,-0.335186 -0.638664,-0.01925 -1.725794,0.321533 -1.612175,0.505376 0.150646,0.243747 0.601478,0.187194 1.356716,-0.17019 z M 57.002551,74.85391 c 0.05998,-0.319686 0.05828,-0.74118 -0.0037,-0.936658 -0.209423,-0.659842 -0.43045,-0.361382 -0.43045,0.581249 0,1.040674 0.264968,1.257555 0.434213,0.355409 z m 7.144392,-0.205192 c -0.655553,-0.329939 -1.320413,-0.716173 -1.477465,-0.858306 -0.157052,-0.142133 -0.420254,-0.232476 -0.584891,-0.20077 -0.208303,0.0401 0.05691,0.303621 0.872048,0.866429 0.875154,0.604254 1.324497,0.806736 1.776807,0.800659 0.587024,-0.0078 0.569206,-0.02632 -0.586499,-0.608012 z m 8.259421,-0.08503 c 1.056589,-0.636899 2.02871,-1.514586 2.583407,-2.332451 0.47666,-0.702798 0.492013,-0.758211 0.128499,-0.463794 -0.227061,0.183893 -0.796016,0.696696 -1.264344,1.139552 -0.468328,0.442857 -1.306813,1.077909 -1.863296,1.411227 -0.799863,0.479095 -0.924711,0.605903 -0.596055,0.605394 0.228653,-3.41e-4 0.683959,-0.162317 1.011789,-0.359928 z M 50.264581,73.945025 c 0.0014,-0.210746 -0.07403,-0.383176 -0.167694,-0.383176 -0.09366,0 -0.169128,0.287381 -0.167693,0.638624 0.0019,0.475041 0.0449,0.573192 0.167693,0.383184 0.09079,-0.140504 0.16626,-0.427886 0.167694,-0.638632 z m 28.83846,-0.08515 c -0.127207,-1.109712 -0.212562,-1.298053 -0.42044,-0.92773 -0.225049,0.400915 -0.01367,1.651512 0.279128,1.651512 0.163337,0 0.201735,-0.19667 0.141312,-0.723782 z m 12.189386,0.09185 c 0.31826,-0.1427 1.161255,-0.349462 1.873309,-0.459476 1.194797,-0.184596 1.296724,-0.232316 1.321502,-0.618692 0.01471,-0.230262 0.156541,-1.022497 0.31504,-1.76051 0.225663,-1.050759 0.242549,-1.370052 0.07783,-1.47186 -0.135715,-0.08388 -0.168485,-0.296868 -0.09235,-0.600224 C 94.983105,68.262625 94.614054,67.672718 93.680505,67.27112 93.220774,67.073344 92.5876,66.685868 92.273467,66.410054 L 91.702321,65.908572 90.6213,66.669781 c -0.723266,0.509302 -0.971379,0.763419 -0.749724,0.767879 0.219779,0.0045 0.131401,0.09335 -0.262578,0.264209 -0.326623,0.14165 -0.94998,0.64288 -1.385228,1.113852 -0.634973,0.687073 -0.928522,0.8747 -1.485389,0.94939 -0.381708,0.05117 -0.817376,0.229393 -0.968143,0.395991 -0.252659,0.27918 -0.24802,0.354193 0.05925,0.957738 0.35825,0.703745 0.63878,1.636664 0.79664,2.649287 l 0.09852,0.632041 1.994566,-0.0945 c 1.227165,-0.05812 2.217194,-0.194321 2.573226,-0.353947 z M 41.18725,73.700223 c -0.05436,-0.135858 -0.09472,-0.0955 -0.102888,0.102889 -0.0074,0.179529 0.03286,0.280113 0.08944,0.223522 0.0566,-0.05658 0.06264,-0.20348 0.01344,-0.326411 z m 44.502616,-0.314144 c 0,-0.823182 -0.330245,-1.663613 -0.827999,-2.107114 -0.455504,-0.405859 -0.460143,-0.28357 -0.01774,0.466331 0.190531,0.322923 0.392795,0.978709 0.449477,1.457295 0.122493,1.034301 0.396215,1.161063 0.396215,0.183488 z m -25.374267,-1.95232 c -0.456963,-0.48642 -0.628395,-0.452086 -0.349039,0.06989 0.10455,0.195357 0.315707,0.35519 0.469237,0.35519 0.226557,0 0.203912,-0.08009 -0.120198,-0.42508 z M 55.54653,71.5947 c 0,-0.143897 -1.2165,-0.619741 -1.319935,-0.516312 -0.196382,0.196387 0.366394,0.610151 0.829883,0.610151 0.269529,0 0.490052,-0.04223 0.490052,-0.09384 z m -2.980273,-0.246766 c 0.05945,-0.09619 -0.08003,-0.1703 -0.320503,-0.1703 -0.234163,0 -0.473115,0.07663 -0.531004,0.1703 -0.05945,0.09619 0.08003,0.170305 0.320502,0.170305 0.234165,0 0.473116,-0.07664 0.531005,-0.170305 z m 4.826475,-0.695294 c 0.874618,-0.37 0.905174,-0.404913 0.79575,-0.909122 -0.237376,-1.093808 -0.297249,-1.801627 -0.15243,-1.802007 0.08259,-1.74e-4 0.166487,-0.711056 0.186456,-1.579627 0.09836,-4.278393 2.434025,-7.280629 6.845701,-8.799381 1.618601,-0.557215 1.850624,-0.895419 1.037006,-1.511605 -1.002153,-0.758964 -1.598468,-1.45568 -2.180408,-2.547518 l -0.556796,-1.044652 -1.291466,0.588536 c -3.27375,1.491897 -6.249207,4.592015 -7.713842,8.037018 -0.826965,1.94513 -1.086635,5.069983 -0.623228,7.49989 0.129888,0.681081 0.226613,1.294166 0.214943,1.362414 -0.01167,0.06824 0.276157,0.221514 0.639616,0.340585 0.363459,0.11907 0.860569,0.365991 1.104692,0.548706 0.244123,0.182716 0.520495,0.30281 0.614161,0.266874 0.09366,-0.03592 0.579597,-0.238482 1.079845,-0.450111 z m 23.617878,0.164616 c 0.829686,-0.389999 1.110944,-0.66143 0.685373,-0.66143 -0.325545,0 -1.764384,0.661991 -1.893732,0.871282 -0.162637,0.263154 0.415797,0.162697 1.208359,-0.209852 z M 51.638057,70.577204 c 0.565016,-0.292183 0.586447,-0.444884 0.25629,-1.826362 -0.128714,-0.538582 -0.175948,-0.979237 -0.104967,-0.979237 0.07098,0 0.175279,-0.938782 0.23177,-2.086187 0.122316,-2.484375 0.547244,-4.273868 1.476416,-6.217608 0.867693,-1.81513 1.514055,-2.751525 2.890023,-4.186851 1.400384,-1.46079 2.303309,-2.125471 4.57486,-3.367758 2.130872,-1.165346 2.454718,-0.888995 -2.787676,-2.378803 l -3.658134,-1.039584 -0.65367,0.673562 c -1.167419,1.202944 -3.225196,1.568944 -4.99894,0.889116 l -0.895908,-0.343377 -0.393413,0.471102 c -1.62675,1.947993 -5.311683,8.261712 -5.311683,9.100966 0,0.185308 0.55234,0.882101 1.252211,1.579705 1.406315,1.40176 1.47147,1.570482 1.47476,3.819007 l 0.0021,1.468849 0.89529,0.785006 c 0.492409,0.431753 1.075805,0.842305 1.296437,0.912327 0.442276,0.140377 2.425656,1.894179 2.358858,2.085828 -0.05644,0.161958 1.054051,0.900124 1.354154,0.900124 0.131301,0 0.464827,-0.11692 0.741173,-0.259825 z m 27.838856,-0.195061 c 0.372989,-0.250183 0.736231,-0.550978 0.807201,-0.668426 0.07097,-0.117456 0.415833,-0.305918 0.766357,-0.418823 0.878099,-0.282817 1.032118,-0.436041 1.251546,-1.2451 0.406796,-1.499891 0.05347,-4.454509 -0.805627,-6.73693 -1.230223,-3.268395 -4.296931,-6.582542 -7.588022,-8.200262 -1.32477,-0.651184 -1.472129,-0.600521 -2.030817,0.698176 -0.404591,0.940501 -1.186845,1.750907 -2.029165,2.102195 -0.329732,0.137512 -0.738521,0.403627 -0.908421,0.591362 -0.299882,0.331368 -0.297292,0.348574 0.08861,0.588832 0.218635,0.136121 0.780695,0.339614 1.249024,0.452209 1.416526,0.34056 3.141365,1.357714 4.342685,2.560924 1.815398,1.818259 2.668817,3.830394 2.763461,6.515486 0.03587,1.017631 0.103012,1.319616 0.293448,1.319834 0.192062,1.75e-4 0.201523,0.04569 0.04258,0.204646 -0.112399,0.112402 -0.204362,0.495579 -0.204362,0.851509 0,0.355931 -0.07663,0.647147 -0.170301,0.647147 -0.09367,0 -0.170302,0.156969 -0.170302,0.348825 0,0.230662 0.187485,0.430312 0.553479,0.589385 0.77736,0.337875 0.979998,0.314581 1.748632,-0.200989 z m 5.964706,-1.518597 c 0.41015,-0.336087 0.792237,-0.757579 0.849071,-0.936658 0.05682,-0.179072 0.184026,-0.325582 0.282648,-0.325582 0.223839,0 3.51734,-2.391745 3.941804,-2.862537 0.195667,-0.217016 0.368673,-0.79542 0.46327,-1.548752 0.194741,-1.550934 0.657624,-2.446823 1.827628,-3.537277 l 0.945341,-0.881066 -0.560641,-1.28585 C 91.992479,54.737576 90.035643,51.59694 88.265723,49.58139 l -0.644849,-0.734327 -0.837775,0.449145 c -0.74232,0.397968 -0.993004,0.442819 -2.200191,0.393645 -1.13345,-0.04616 -1.534971,-0.145823 -2.389243,-0.592987 l -1.026836,-0.537489 -4.458641,0.97077 c -2.452253,0.533925 -4.504387,1.016518 -4.560298,1.072427 -0.05591,0.05592 0.436209,0.307187 1.0936,0.558389 1.453997,0.555608 3.53067,1.785311 5.030786,2.978989 1.956171,1.556572 4.295886,5.140386 5.119312,7.84141 0.336122,1.102555 0.585714,5.492531 0.357336,6.284914 -0.120964,0.419666 -0.08885,0.600733 0.15412,0.869216 0.428575,0.473578 0.683823,0.428464 1.538575,-0.271946 z M 59.319472,66.366621 c 0.05891,-1.583279 0.121845,-1.864358 0.676907,-3.022853 1.12425,-2.346464 2.567554,-3.58747 5.342479,-4.59365 1.646434,-0.597 2.093096,-0.855989 1.476249,-0.855989 -0.605835,0 -2.405852,0.65585 -3.559715,1.297011 -2.632077,1.462546 -4.473135,4.61164 -4.473135,7.651202 0,0.994053 0.07595,1.269868 0.349671,1.269868 0.06744,0 0.151824,-0.785515 0.187544,-1.745589 z m 17.389189,1.192107 c 0.114657,-0.760727 -0.147061,-2.497273 -0.548516,-3.639484 -1.045262,-2.97396 -3.878595,-5.371724 -6.989506,-5.915005 -0.547216,-0.09557 -0.569559,-0.08384 -0.272684,0.14308 0.177854,0.135947 0.714303,0.374879 1.19211,0.530966 1.807734,0.590539 3.295382,1.637694 4.435657,3.122266 1.310782,1.706565 1.507012,2.247972 1.593227,4.395771 0.05569,1.387149 0.136154,1.915888 0.291598,1.915888 0.118081,0 0.252232,-0.249064 0.298114,-0.553482 z M 42.554149,67.167841 c 0.230799,-0.151228 0.386689,-0.307901 0.346425,-0.348162 -0.109629,-0.109634 -1.829658,0.63533 -1.829658,0.792441 0,0.184189 0.965391,-0.104981 1.483233,-0.444279 z m -3.186247,0.126266 c 0,-0.07529 -0.274762,-0.400993 -0.610585,-0.723775 -0.821861,-0.789968 -1.092427,-1.356703 -1.092427,-2.288232 0,-0.973592 0.477309,-1.937574 1.291812,-2.608954 0.341273,-0.281306 0.590664,-0.600958 0.554205,-0.710336 -0.126978,-0.38093 -1.616148,1.147882 -2.010064,2.063563 -0.419179,0.97441 -0.397099,1.589329 0.09425,2.62477 0.484723,1.021473 1.77281,2.215222 1.77281,1.642964 z m 55.51824,-0.627316 c 0,-0.04564 -0.536451,-0.353162 -1.192109,-0.683347 -1.357179,-0.683468 -1.583532,-0.54682 -0.39656,0.239403 0.684058,0.453097 1.588669,0.705887 1.588669,0.443944 z m 3.176219,-1.388572 c 0.898668,-1.263997 1.008831,-1.832515 0.577997,-2.982938 -0.413203,-1.103354 -1.626911,-2.363914 -2.260271,-2.34752 -0.376926,0.0098 -0.378136,0.01533 -0.0464,0.212877 0.187328,0.111571 0.695245,0.547722 1.128693,0.969215 1.299902,1.264037 1.292321,2.737016 -0.02261,4.388483 -0.374186,0.469955 -0.680335,0.905319 -0.680335,0.967471 0,0.257966 0.765124,-0.451186 1.302902,-1.207588 z M 44.124738,63.071076 c -0.174832,-0.881369 -0.5711,-1.394268 -1.563684,-2.023914 -0.554766,-0.351914 -0.625156,-0.109287 -0.102796,0.354321 0.831965,0.738393 1.33748,1.637814 1.33748,2.379664 0,0.399783 0.05411,0.867259 0.120251,1.038833 0.224894,0.583418 0.392633,-0.821895 0.208749,-1.748904 z m 38.958327,0.999717 c -0.04318,-0.165697 -0.08134,-0.07136 -0.08482,0.209634 -0.0035,0.281001 0.03186,0.41657 0.07851,0.30127 0.04664,-0.115299 0.04948,-0.345206 0.0063,-0.510904 z m 8.955969,-0.561811 c -0.159861,-0.611314 0.476163,-1.90015 1.352196,-2.740087 0.470195,-0.450824 0.756669,-0.846301 0.657448,-0.907623 -0.219418,-0.135612 -1.658664,1.172579 -1.985581,1.804767 -0.26662,0.515584 -0.333901,2.188633 -0.08803,2.188633 0.0849,0 0.113677,-0.155559 0.06396,-0.34569 z M 52.938043,63.141537 c -0.05436,-0.13585 -0.09472,-0.0955 -0.102889,0.102895 -0.0074,0.179523 0.03286,0.280107 0.08944,0.223518 0.0566,-0.05658 0.06264,-0.203474 0.01344,-0.326413 z m 2.800513,-5.886039 c 0.211832,-0.270106 0.205809,-0.27613 -0.0643,-0.0643 -0.283679,0.222475 -0.373894,0.362329 -0.233728,0.362329 0.03536,0 0.169475,-0.134113 0.298027,-0.298027 z m 0.744632,-0.894081 c 0.169533,-0.18733 0.269925,-0.340605 0.223092,-0.340605 -0.04683,0 -0.223861,0.153275 -0.393393,0.340605 -0.169534,0.187331 -0.269925,0.340598 -0.223092,0.340598 0.04683,0 0.22386,-0.153267 0.393393,-0.340598 z m 9.681068,-1.668221 c -0.380829,-0.34811 -0.906706,-1.053953 -1.168618,-1.568545 -0.451473,-0.887026 -0.739925,-0.946397 -0.529764,-0.109048 0.149764,0.596702 1.078819,1.787929 1.679178,2.153031 0.799162,0.486001 0.808843,0.24636 0.01921,-0.475438 z m 3.139579,0.552226 c 1.167495,-0.487687 2.087423,-1.631918 2.073935,-2.579604 -0.0064,-0.456893 -0.02095,-0.448397 -0.346119,0.203597 -0.420902,0.843926 -1.628759,2.095752 -2.087901,2.163903 -0.188367,0.02793 -0.374035,0.146632 -0.412594,0.263713 -0.09051,0.274829 0.0067,0.268328 0.772679,-0.05162 z M 57.845598,54.999004 c 0.169534,-0.187331 0.269925,-0.340604 0.223092,-0.340604 -0.04683,0 -0.223859,0.153273 -0.393393,0.340604 -0.169533,0.187331 -0.269924,0.340605 -0.22309,0.340605 0.04683,0 0.223858,-0.153274 0.393391,-0.340605 z m 8.00511,-5.450686 c 0.170052,-0.187905 0.265213,-0.385618 0.211471,-0.43936 -0.123382,-0.123382 -0.978774,0.427458 -0.978774,0.630291 0,0.270707 0.451112,0.158454 0.767303,-0.190931 z m -14.162453,-0.01234 c 0.360092,-0.09999 0.934859,-0.450292 1.27726,-0.778454 l 0.62255,-0.596657 -0.846656,0.477092 c -0.7189,0.405101 -1.042566,0.477738 -2.144951,0.481375 -0.819907,0.0027 -1.396559,-0.0772 -1.564976,-0.216861 -0.154341,-0.127989 -0.30815,-0.154052 -0.365118,-0.06188 -0.145481,0.235391 0.262231,0.511007 1.018107,0.688251 0.921282,0.216032 1.247273,0.217191 2.003784,0.0072 z m 13.002217,-0.479177 c 1.250626,-0.905949 1.41507,-1.242937 1.412135,-2.893847 -0.0013,-0.806943 -0.0589,-1.549835 -0.127726,-1.650872 -0.06882,-0.101032 -0.535793,-0.405136 -1.037729,-0.675781 -0.969477,-0.52274 -2.016325,-1.601502 -2.177571,-2.24395 -0.119075,-0.474429 -0.249713,-0.477104 -1.961048,-0.04017 -1.662639,0.424509 -3.597482,1.178774 -5.104969,1.990085 l -1.130228,0.608273 0.236146,0.565176 c 0.12988,0.310843 0.236144,0.835858 0.236144,1.166697 0,1.073294 0.140978,1.138448 7.152658,3.305671 1.477725,0.456745 1.70703,0.444715 2.502188,-0.131296 z m 9.03218,0.389681 c -0.0566,-0.05659 -0.203475,-0.06264 -0.326411,-0.01344 -0.135855,0.05436 -0.09551,0.09472 0.102891,0.10289 0.179525,0.0074 0.28011,-0.03285 0.22352,-0.08944 z M 70.016065,49.14598 c -0.342758,-0.320372 -1.299056,-0.620634 -1.935222,-0.607629 l -0.528067,0.01079 0.425753,0.182092 c 0.333603,0.142681 1.75472,0.550345 2.207837,0.633342 0.04349,0.008 -0.03315,-0.09041 -0.170301,-0.218599 z m 6.647833,-1.153961 c 1.732816,-0.380272 3.284687,-0.762899 3.448602,-0.850283 0.253377,-0.135076 0.298029,-0.414038 0.298029,-1.861954 V 43.576708 L 79.601596,43.22068 c -1.585629,-0.697871 -4.179888,-1.502555 -5.937946,-1.841825 -2.511286,-0.484629 -2.52224,-0.483115 -2.953581,0.407914 -0.434065,0.89666 -1.669448,2.084469 -2.338296,2.248248 -0.263117,0.06443 -0.534698,0.201138 -0.603513,0.303798 -0.06882,0.10266 -0.125117,0.79974 -0.125117,1.549067 0,0.749325 0.0563,1.448819 0.125117,1.55443 0.06882,0.105612 0.469979,0.246579 0.891474,0.313261 0.421497,0.06668 1.06779,0.316358 1.43621,0.554837 1.268421,0.821057 1.406161,0.814381 6.567954,-0.318391 z m 9.695393,0.626779 c 0.304888,-0.157664 0.528063,-0.31224 0.49594,-0.343502 -0.0321,-0.03126 -0.978028,-0.0016 -2.102024,0.06575 l -2.043611,0.12259 0.596054,0.291374 c 0.726855,0.355313 2.233054,0.288126 3.053641,-0.136212 z m -9.571214,0.146467 c -0.0566,-0.0566 -0.203477,-0.06264 -0.326412,-0.01344 -0.135855,0.05436 -0.0955,0.09472 0.102891,0.102889 0.179526,0.0074 0.28011,-0.03286 0.223521,-0.08944 z m 3.065424,-0.681206 c -0.05659,-0.0566 -0.203476,-0.06265 -0.326412,-0.01344 -0.135854,0.05436 -0.0955,0.09472 0.102892,0.10289 0.179524,0.0074 0.280109,-0.03286 0.22352,-0.08945 z M 47.725753,45.399717 c 0.409382,-1.595951 1.415151,-2.321807 3.217171,-2.321807 1.212029,0 1.362407,-0.269476 0.243972,-0.437197 -1.134128,-0.170073 -2.062223,0.162297 -2.909185,1.041838 -0.774196,0.803979 -1.395374,2.351464 -1.168378,2.910683 0.122791,0.302506 0.134525,0.30144 0.266143,-0.02414 0.07573,-0.187331 0.233353,-0.713548 0.350277,-1.16937 z m 6.379406,-0.219936 c -0.05872,-0.313037 -0.190613,-0.569158 -0.29308,-0.569158 -0.206157,0 -0.08316,1.557511 0.151622,1.919947 0.184128,0.284245 0.278727,-0.619084 0.141458,-1.350789 z m 27.536623,0.02376 c 0.05485,-1.171142 -0.27649,-1.477312 -0.446717,-0.412781 -0.138749,0.867683 0.04282,2.034596 0.257024,1.651838 0.07903,-0.141215 0.164389,-0.69879 0.189693,-1.239057 z m 6.60261,0.620051 c 0,-0.363194 -0.0958,-0.739985 -0.212879,-0.837313 -0.166561,-0.13846 -0.200038,0.0052 -0.153869,0.660352 0.06976,0.989297 0.366748,1.132613 0.366748,0.176961 z m -22.47978,-2.664743 c 0,-0.142817 -0.19192,-0.332635 -0.42649,-0.42182 -0.234567,-0.08918 -0.670817,-0.508781 -0.969439,-0.932441 -0.298623,-0.423661 -0.645121,-0.770291 -0.769995,-0.770291 -0.526385,0 0.542504,1.361843 1.650338,2.10265 0.513812,0.343584 0.515586,0.34366 0.515586,0.02191 z m 3.07428,-0.293814 c 0.772347,-0.596585 1.520977,-1.720083 1.29604,-1.94502 -0.07608,-0.07608 -0.21934,0.01429 -0.318353,0.200851 -0.09901,0.186551 -0.647484,0.779838 -1.218832,1.318417 -1.136642,1.071449 -0.971727,1.362615 0.241145,0.425752 z m 15.374771,-0.479852 c 0.502672,-0.01073 0.514104,-0.02382 0.167217,-0.191487 -0.422204,-0.204063 -1.245531,-0.05568 -1.245531,0.224478 0,0.101901 0.121221,0.138761 0.269381,0.0819 0.14816,-0.05685 0.512174,-0.108558 0.808933,-0.114898 z M 64.214301,37.821087 c -0.114484,-0.03816 -0.31063,0.07076 -0.43588,0.24205 -0.382819,0.523536 -0.253569,0.670588 0.208152,0.236822 0.278371,-0.261515 0.360663,-0.434561 0.227728,-0.478872 z m 5.640959,0.237049 c -0.118482,-0.142763 -0.340151,-0.257864 -0.492596,-0.255781 -0.20662,0.0029 -0.169446,0.08656 0.146033,0.328955 0.474887,0.364875 0.67504,0.322615 0.346563,-0.07317 z m 62.08047,34.169847 c -0.13096,-0.412637 0.25267,-1.233578 0.95122,-2.035507 0.6566,-0.753769 0.61498,-1.160034 -0.19809,-1.933479 -1.47807,-1.40606 -4.55787,-2.522982 -12.0939,-4.385994 -9.64668,-2.384781 -13.15062,-3.894888 -15.92896,-6.864941 -1.25066,-1.336956 -2.19597,-2.767912 -3.80229,-5.755686 -3.617296,-6.728228 -8.053972,-11.473604 -13.707727,-14.661502 -4.297302,-2.423053 -5.566403,-3.69252 -4.105785,-4.106971 2.022471,-0.573879 6.224727,1.989857 11.218882,6.844494 2.942293,2.860087 4.48418,4.738184 7.13292,8.688253 4.94201,7.370055 7.09867,9.542693 11.02025,11.101911 0.7052,0.280383 4.42426,1.384812 8.26455,2.454283 7.97324,2.220436 8.41952,2.36739 10.70291,3.524333 1.81774,0.920992 3.46495,2.287126 3.92391,3.25432 0.37597,0.792279 0.34425,1.736461 -0.0814,2.425247 -0.46842,0.757915 -1.72345,1.60737 -2.5358,1.716329 -0.54796,0.07351 -0.66628,0.03225 -0.76065,-0.26509 z M 31.532763,54.826317 c -1.111649,-2.077138 6.456594,-12.502758 13.114482,-18.065835 3.803926,-3.178416 10.312482,-5.949644 16.417324,-6.990205 1.597858,-0.272352 2.592669,-0.333395 4.700093,-0.288399 2.686345,0.05735 3.235675,0.182675 3.235675,0.73816 0,0.552359 -2.413187,1.171357 -6.641753,1.703649 -7.754618,0.976153 -14.636504,4.398081 -20.42203,10.15459 -2.638644,2.625412 -3.889687,4.298789 -7.452822,9.9688 -1.195403,1.902242 -2.184457,3.122227 -2.531216,3.122227 -0.129905,0 -0.318794,-0.154343 -0.419753,-0.342987 z"
       id="path4686"
       inkscape:connector-curvature="0" />
  </g>
</svg>
